<?xml version="1.0" encoding="utf-8"?>
<!-- Generator: Adobe Illustrator 24.1.2, SVG Export Plug-In . SVG Version: 6.00 Build 0)  -->
<svg version="1.1" id="Layer_1" xmlns="http://www.w3.org/2000/svg" xmlns:xlink="http://www.w3.org/1999/xlink" x="0px" y="0px"
	 viewBox="0 0 1280 963" style="enable-background:new 0 0 1280 963;" xml:space="preserve">
<style type="text/css">
	.st0{fill:#F4F4F4;}
	.st1{fill:#F2EC2F;stroke:#262642;stroke-miterlimit:10;}
	.st2{fill:#0C0C19;}
	.st3{fill:#0C0C19;stroke:#2E2D38;stroke-width:2;stroke-miterlimit:10;}
	.st4{fill:#FFFFFF;}
	.st5{fill:#F2EC2F;stroke:#F4F4F4;stroke-width:0.25;stroke-miterlimit:10;}
	.st6{fill:#0C0C19;stroke:#F4F4F4;stroke-width:0.25;stroke-miterlimit:10;}
</style>
<g>
	<path class="st0" d="M484.74,326.6v161.27c0.75,9.9,6.77,19.68,15.24,26.17l157.78,117.38l157.78-117.38
		c8.81-6.59,14.74-16.36,15.24-26.17V326.6c0-10.83-5.82-20.83-15.24-26.17l-142.94-81.09c-9.21-5.22-20.49-5.22-29.7,0
		l-142.94,81.09C490.56,305.77,484.74,315.77,484.74,326.6z"/>
</g>
<g>
	<path class="st0" d="M991.06,825.11h-418.3c-2.76,0-5-2.24-5-5V707.74c0-2.76,2.24-5,5-5h418.3c2.76,0,5,2.24,5,5v112.37
		C996.06,822.87,993.82,825.11,991.06,825.11z"/>
	<g>
		<g>
			<path class="st0" d="M340.97,808.43c-6.74,2.52-12.79,3.78-18.14,3.78c-7.05,0-13.55-1.89-19.48-5.67
				c-5.93-3.78-10.54-9.4-13.84-16.86c-3.29-7.46-4.94-15.9-4.94-25.32c0-9.34,1.63-17.73,4.88-25.17
				c3.26-7.44,7.85-13.08,13.78-16.92c5.93-3.84,12.46-5.76,19.59-5.76c5.35,0,11.39,1.25,18.14,3.75v10.7
				c-6.24-3.63-12.44-5.44-18.6-5.44c-4.65,0-8.9,1.59-12.76,4.77c-3.86,3.18-6.97,7.85-9.33,13.99
				c-2.36,6.15-3.55,12.83-3.55,20.04c0,7.33,1.22,14.1,3.66,20.31c2.44,6.21,5.56,10.85,9.36,13.93c3.8,3.08,8,4.63,12.62,4.63
				c6.12,0,12.32-1.8,18.6-5.41V808.43z"/>
			<path class="st0" d="M387.94,811.27c-9.29,0-16.73-3.25-22.3-9.74c-5.58-6.49-8.36-14.68-8.36-24.56s2.79-18.06,8.36-24.53
				c5.58-6.47,13.01-9.71,22.3-9.71c9.25,0,16.67,3.24,22.24,9.71c5.58,6.47,8.37,14.65,8.37,24.53s-2.79,18.07-8.37,24.56
				C404.6,808.03,397.19,811.27,387.94,811.27z M387.94,802.26c5.77,0,10.35-2.25,13.76-6.74c3.41-4.5,5.11-10.68,5.11-18.55
				c0-7.83-1.7-13.99-5.11-18.49c-3.4-4.5-7.99-6.74-13.76-6.74c-5.8,0-10.41,2.25-13.82,6.74s-5.11,10.66-5.11,18.49
				c0,7.87,1.7,14.05,5.11,18.55S382.13,802.26,387.94,802.26z"/>
			<path class="st0" d="M476.1,794.87c-3.3,5.43-7.27,9.52-11.91,12.27c-4.64,2.75-8.89,4.13-12.78,4.13
				c-5.43,0-10.31-2.34-14.64-7.03c-4.33-4.69-6.49-11.8-6.49-21.34c0-7.52,1.44-14.23,4.31-20.14c2.87-5.91,6.71-10.58,11.53-14.01
				s10.77-5.15,17.87-5.15c2.06,0,5.16,0.21,9.31,0.64c0.62,0.08,1.55,0.17,2.79,0.29v-28.89h10.81v93.83H476.1V794.87z
				 M476.1,782.01v-27.88c-3.84-1.01-7.42-1.51-10.71-1.51c-6.68,0-12.24,2.58-16.69,7.74c-4.45,5.16-6.67,12.18-6.67,21.07
				c0,6.44,1.21,11.3,3.64,14.58c2.43,3.28,5.19,4.92,8.3,4.92c3.38,0,7.11-1.71,11.18-5.12
				C469.23,792.39,472.88,787.79,476.1,782.01z"/>
			<path class="st0" d="M558.13,805.15c-8.64,4.08-16.82,6.12-24.53,6.12c-5.85,0-11.08-1.45-15.7-4.36
				c-4.61-2.9-8.3-7.06-11.07-12.46s-4.16-11.18-4.16-17.34c0-5.93,1.32-11.62,3.95-17.08c2.64-5.46,6.32-9.71,11.05-12.75
				c4.73-3.04,10-4.56,15.81-4.56c7.71,0,13.9,2.75,18.57,8.24c4.67,5.5,7.01,13.97,7.01,25.42v2.32H514.3
				c0,4.51,0.94,8.63,2.82,12.36c1.88,3.73,4.35,6.53,7.41,8.39c3.06,1.87,6.55,2.8,10.46,2.8c6.98,0,14.69-2.33,23.14-6.99V805.15z
				 M514.93,770.64h32.38v-1.56c0-5.29-1.3-9.51-3.9-12.64c-2.6-3.13-6.07-4.69-10.41-4.69c-4.38,0-8.17,1.59-11.37,4.78
				S516.21,764.42,514.93,770.64z"/>
		</g>
		<path class="st1" d="M576.56,809.47v-90.23h17.62c10.58,0,17.66,0.8,21.25,2.41s6.27,3.98,8.05,7.12s2.67,6.72,2.67,10.76
			c0,3.18-0.52,6.19-1.57,9.04c-1.05,2.85-2.6,5.45-4.65,7.79c-2.05,2.34-5.04,4.56-8.95,6.66c7.17,2.87,12.02,6.39,14.56,10.58
			c2.54,4.19,3.81,8.37,3.81,12.56c0,3.99-1.08,7.87-3.23,11.63c-2.15,3.76-5.16,6.65-9.04,8.66c-3.88,2.02-10.08,3.02-18.6,3.02
			H576.56z M588.3,759.88h12.32c3.99-1.67,6.91-3.43,8.75-5.27c1.84-1.84,3.22-3.9,4.13-6.17c0.91-2.27,1.37-4.77,1.37-7.48
			c0-4.27-1.25-7.46-3.75-9.55c-2.5-2.1-7.37-3.15-14.62-3.15h-8.2V759.88z M588.3,800.46h11.1c6.2,0,10.78-1.46,13.75-4.39
			s4.45-6.44,4.45-10.55c0-3.02-0.81-5.8-2.44-8.34c-1.63-2.54-4.15-4.55-7.56-6.05c-3.41-1.49-8.76-2.24-16.05-2.24h-3.26V800.46z"
			/>
		<path class="st1" d="M701.03,805.15c-8.64,4.08-16.82,6.12-24.53,6.12c-5.85,0-11.08-1.45-15.7-4.36
			c-4.61-2.9-8.3-7.06-11.07-12.46s-4.16-11.18-4.16-17.34c0-5.93,1.32-11.62,3.95-17.08c2.64-5.46,6.32-9.71,11.05-12.75
			c4.73-3.04,10-4.56,15.81-4.56c7.71,0,13.9,2.75,18.57,8.24c4.67,5.5,7.01,13.97,7.01,25.42v2.32h-44.77
			c0,4.51,0.94,8.63,2.82,12.36c1.88,3.73,4.35,6.53,7.41,8.39c3.06,1.87,6.55,2.8,10.46,2.8c6.98,0,14.69-2.33,23.14-6.99V805.15z
			 M657.83,770.64h32.38v-1.56c0-5.29-1.3-9.51-3.9-12.64c-2.6-3.13-6.07-4.69-10.41-4.69c-4.38,0-8.17,1.59-11.37,4.78
			S659.11,764.42,657.83,770.64z"/>
		<path class="st1" d="M772.48,805.15c-8.64,4.08-16.82,6.12-24.53,6.12c-5.85,0-11.08-1.45-15.7-4.36
			c-4.61-2.9-8.3-7.06-11.08-12.46s-4.16-11.18-4.16-17.34c0-5.93,1.32-11.62,3.95-17.08c2.64-5.46,6.32-9.71,11.05-12.75
			c4.73-3.04,10-4.56,15.81-4.56c7.71,0,13.9,2.75,18.57,8.24c4.67,5.5,7.01,13.97,7.01,25.42v2.32h-44.77
			c0,4.51,0.94,8.63,2.82,12.36c1.88,3.73,4.35,6.53,7.41,8.39c3.06,1.87,6.55,2.8,10.46,2.8c6.98,0,14.69-2.33,23.14-6.99V805.15z
			 M729.28,771H762v-1.59c0-5.4-1.31-9.69-3.94-12.88s-6.13-4.78-10.51-4.78c-4.42,0-8.25,1.62-11.48,4.87
			C732.84,759.87,730.58,764.66,729.28,771z"/>
		<path class="st2" d="M788.64,809.47v-9.94l39.8-45.99h-38.87v-9.01h53.19v9.01l-40.11,45.99h41.45v9.94H788.64z"/>
		<path class="st2" d="M860.09,809.47v-9.94l39.8-45.99h-38.87v-9.01h53.19v9.01l-40.11,45.99h41.45v9.94H860.09z"/>
		<path class="st2" d="M931.54,809.47v-9.94l39.8-45.99h-38.87v-9.01h53.19v9.01l-40.11,45.99H987v9.94H931.54z"/>
	</g>
</g>
<g>
	<path class="st3" d="M506.12,338.31v141.71c0.66,8.7,5.95,17.3,13.4,23l138.65,103.14l138.65-103.14c7.75-5.79,12.96-14.38,13.4-23
		l0-141.71c0-9.52-5.12-18.3-13.4-23l-125.6-71.26c-8.09-4.59-18-4.59-26.1,0l-125.6,71.26
		C511.24,320.01,506.12,328.79,506.12,338.31z"/>
</g>
<g>
	<path class="st4" d="M193.9,765.64l69.6-35.85v10.35l-58.65,29.4v0.3l58.65,29.4v10.35l-69.6-35.85V765.64z"/>
</g>
<g>
	<path class="st4" d="M1130.99,782.47l-69.6,35.85v-10.35l58.65-29.4v-0.3l-58.65-29.4v-10.35l69.6,35.85V782.47z"/>
</g>
<g>
	<path class="st4" d="M1007.47,814.39l33.48-87h8.16l-33.6,87H1007.47z"/>
</g>
<g>
	<circle class="st5" cx="650.99" cy="405.33" r="22.93"/>
	<path class="st5" d="M729.92,426.27h-22.7c-15.04,0-27.24-12.19-27.24-27.24v0c0-12.54,10.16-22.7,22.7-22.7h0
		c15.04,0,27.24,12.19,27.24,27.24V426.27z"/>
	<path class="st6" d="M719.03,414.47h-12.23c-8.29,0-15-6.72-15-15v0c0-6.76,5.48-12.23,12.23-12.23l0,0c8.29,0,15,6.72,15,15
		V414.47z"/>
	<path class="st5" d="M676.02,378.4v-66.62c0-16.92-13.79-30.63-30.8-30.63h0c-10.63,0-19.25,8.57-19.25,19.14L676.02,378.4z"/>
	<path class="st5" d="M666.66,378.52l-33.91-14.69c-8.61-3.73-12.57-13.73-8.84-22.34v0c2.33-5.38,8.58-7.85,13.96-5.52
		L666.66,378.52z"/>
	<path class="st5" d="M658.29,490.27v-15.6c-24.09,3.72-47.83,3.39-71.27-0.27v7.97c0,2.57,0.2,5.09,0.57,7.55
		C611.09,492.98,634.65,493.34,658.29,490.27z"/>
	<g>
		<path class="st5" d="M645.03,435.71c-6.12-4.95-13.9-7.91-22.37-7.91h0c-7.98,0-15.34,2.63-21.27,7.06
			C615.99,436.25,630.54,436.59,645.03,435.71z"/>
		<path class="st5" d="M591.34,446.43c-1.69,3.11-2.94,6.51-3.64,10.1c24.39,4.37,47.83,4.95,69.99,0.42
			c-0.6-3.28-1.66-6.41-3.1-9.31C634.1,448.39,612.98,447.92,591.34,446.43z"/>
	</g>
	<g>
		<path class="st5" d="M658.29,515.36v-8.98c-21.13,2.96-42.79,2.94-64.92,0.33c1.93,3.45,4.26,6.64,6.92,9.51
			C620.12,519.04,639.49,518.89,658.29,515.36z"/>
		<path class="st5" d="M618.98,528.93c5.57,2.15,11.61,3.33,17.93,3.33h21.38v-5.5C645.42,528.51,632.31,529.21,618.98,528.93z"/>
	</g>
</g>
</svg>
